<svg id="visual" viewBox="0 0 900 450" width="900" height="450" xmlns="http://www.w3.org/2000/svg" xmlns:xlink="http://www.w3.org/1999/xlink" version="1.1"><path d="M0 353L90 327L180 361L270 363L360 351L450 346L540 328L630 342L720 343L810 337L900 348L900 451L810 451L720 451L630 451L540 451L450 451L360 451L270 451L180 451L90 451L0 451Z" fill="#f9bfc8"></path><path d="M0 381L90 373L180 379L270 371L360 388L450 365L540 381L630 367L720 353L810 369L900 356L900 451L810 451L720 451L630 451L540 451L450 451L360 451L270 451L180 451L90 451L0 451Z" fill="#b692aa"></path><path d="M0 391L90 405L180 412L270 390L360 395L450 400L540 396L630 382L720 384L810 404L900 404L900 451L810 451L720 451L630 451L540 451L450 451L360 451L270 451L180 451L90 451L0 451Z" fill="#716984"></path><path d="M0 407L90 424L180 410L270 431L360 416L450 407L540 429L630 427L720 407L810 420L900 407L900 451L810 451L720 451L630 451L540 451L450 451L360 451L270 451L180 451L90 451L0 451Z" fill="#344256"></path></svg>