<svg width="1440" height="181" viewBox="0 0 1440 181" fill="none" xmlns="http://www.w3.org/2000/svg">
<path d="M9.5 178.5L0.5 150V1H1439V105L1425.5 168.5L1415.5 131L1407 146L1324 44L1232 40.5L1198.5 63L1185 102L1177.5 80L1168 118L1160.5 85.5L1144.5 59L1074.5 34.5L979 24L902 34.5H831.5H766L740 59L727 44L669 24L624 44L571.5 20.5L494 24L471 48.5L455.5 109.5L440.5 71L435 90L429.5 71L409 34.5L342 30.5L311 62.5L302.5 105L287.5 71L256.5 44L210.5 48.5L176 71L152 105L136.5 90L126 128L120 105L105.5 93.5L89.5 122.5L79 109.5L60 144L41 109.5L23.5 140.5L9.5 178.5Z" fill="#A0AAB9"/>
<path d="M11.5 103.5L0.5 47.5V0.5H1440V47.5L1416 118.5L1401.5 93.5L1381 181L1364 114L1355 141L1340.5 73L1309 88.5L1287 55.5L1200.5 45L1161 55.5L1134.5 78.5L1100.5 52L1063.5 41.5L1034 52L1006.5 118L998.5 88.5L992 105L984.5 55.5L975 30L958.5 45L947.5 78.5L942.5 55.5L931 41.5L872.5 45L830.5 61L738 34L661.5 41.5L630.5 61L615.5 94L607 72.5L560.5 34L511.5 47.5L491.5 34L443.5 41.5L416 61L397.5 98L386 72.5L376.5 85.5L342.5 52.5L311.5 34L271 47.5L223 61L182 41.5L146.5 72.5L122.5 41.5L104 78L91 56L61 118L54.5 103.5L43 133.5L35.5 176.5L31 142.5L18 85.5L11.5 103.5Z" fill="#344256"/>
</svg>
